<svg xmlns="http://www.w3.org/2000/svg" width="13.658" height="12.253" viewBox="0 0 13.658 12.253">
  <path id="Path_159" data-name="Path 159" d="M11.556,3.04H1.7a.822.822,0,0,0-.851.79v8.692a.822.822,0,0,0,.851.79h9.855a.822.822,0,0,0,.851-.79V3.83A.822.822,0,0,0,11.556,3.04ZM1.7,2.25A1.644,1.644,0,0,0,0,3.83v8.692A1.644,1.644,0,0,0,1.7,14.1h9.855a1.644,1.644,0,0,0,1.7-1.58V3.83a1.644,1.644,0,0,0-1.7-1.58Z" transform="translate(0.2 -2.05)" fill="#e41c26" stroke="#e41c26" stroke-width="0.4" fill-rule="evenodd"/>
</svg>
